<?xml version="1.0" encoding="UTF-8"?>
<svg id="Calque_1" xmlns="http://www.w3.org/2000/svg" version="1.1" viewBox="0 0 32 32">
  <!-- Generator: Adobe Illustrator 30.1.0, SVG Export Plug-In . SVG Version: 2.1.1 Build 136)  -->
  <defs>
    <style>
      .st0 {
        fill: #fff;
      }
    </style>
  </defs>
  <path class="st0" d="M29,26c0,.55-.45,1-1,1H4c-.55,0-1-.45-1-1V6c0-.55.45-1,1-1s1,.45,1,1v13.59l6.29-6.29c.39-.39,1.02-.39,1.41,0h0s3.29,3.29,3.29,3.29l6.59-6.59h-2.59c-.55,0-1-.45-1-1s.45-1,1-1h5c.55,0,1,.45,1,1v5c0,.55-.45,1-1,1s-1-.45-1-1v-2.59l-7.29,7.29c-.39.39-1.02.39-1.41,0,0,0,0,0,0,0l-3.29-3.29-7,7v2.59h23c.55,0,1,.45,1,1Z"/>
</svg>