<?xml version="1.0" encoding="UTF-8"?>
<svg id="Calque_1" xmlns="http://www.w3.org/2000/svg" version="1.1" viewBox="0 0 32 32">
  <!-- Generator: Adobe Illustrator 30.1.0, SVG Export Plug-In . SVG Version: 2.1.1 Build 136)  -->
  <defs>
    <style>
      .st0 {
        fill: #fff;
      }
    </style>
  </defs>
  <path class="st0" d="M29.42,9.17l-6.59-6.59c-.78-.78-2.05-.78-2.83,0,0,0,0,0,0,0L2.59,20c-.78.78-.78,2.05,0,2.83,0,0,0,0,0,0l6.59,6.58c.78.78,2.05.78,2.83,0,0,0,0,0,0,0L29.42,12c.78-.78.78-2.05,0-2.83,0,0,0,0,0,0ZM10.59,28l-6.59-6.59,4-4,3.29,3.29c.39.39,1.02.39,1.41,0,.39-.39.39-1.02,0-1.42l-3.29-3.29,2.59-2.59,3.29,3.29c.39.39,1.02.39,1.42,0s.39-1.02,0-1.41l-3.29-3.29,2.59-2.59,3.29,3.29c.39.39,1.02.39,1.42,0,.39-.39.39-1.02,0-1.41l-3.29-3.29,4-4,6.59,6.59L10.59,28Z"/>
</svg>