<?xml version="1.0" encoding="UTF-8"?>
<svg id="Calque_1" xmlns="http://www.w3.org/2000/svg" version="1.1" viewBox="0 0 32 32">
  <!-- Generator: Adobe Illustrator 30.1.0, SVG Export Plug-In . SVG Version: 2.1.1 Build 136)  -->
  <defs>
    <style>
      .st0 {
        fill: #fff;
      }
    </style>
  </defs>
  <path class="st0" d="M16,3c-7.18,0-13,5.82-13,13s5.82,13,13,13,13-5.82,13-13c0-7.18-5.82-12.99-13-13ZM25.56,21.43h-4.2l-1.16-1.59,1.58-4.6,1.88-.61,3.28,2.52c-.16,1.51-.62,2.97-1.37,4.29ZM5.06,17.14l3.27-2.51,1.88.61,1.58,4.6-1.15,1.59h-4.2c-.75-1.32-1.22-2.78-1.38-4.29h0ZM6.31,10.81l.69,2.32-1.91,1.46c.17-1.33.58-2.61,1.22-3.79h.01ZM13.62,19l-1.43-4.17,3.81-2.62,3.81,2.62-1.43,4.17h-4.75ZM25.01,13.14l.69-2.32c.63,1.18,1.05,2.46,1.22,3.79l-1.9-1.46ZM24.23,8.71l-1.19,4.01-1.88.61-4.16-2.86v-1.95l3.64-2.5c1.37.64,2.59,1.55,3.6,2.69h0ZM18.26,5.23l-2.26,1.55-2.26-1.55c1.49-.31,3.03-.31,4.52,0ZM11.36,6.03l3.64,2.5v1.95l-4.16,2.86-1.88-.61-1.19-4.01c1-1.13,2.23-2.05,3.6-2.69ZM7.89,23.43h2.55l.9,2.53c-1.3-.61-2.47-1.47-3.44-2.53ZM13.75,26.77l-1.48-4.18,1.15-1.59h5.16l1.15,1.59-1.48,4.18c-1.49.31-3.02.31-4.51,0h0ZM20.67,25.96l.9-2.53h2.55c-.97,1.06-2.15,1.92-3.45,2.53h0Z"/>
</svg>