<?xml version="1.0" encoding="UTF-8"?>
<svg id="Calque_1" xmlns="http://www.w3.org/2000/svg" version="1.1" viewBox="0 0 32 32">
  <!-- Generator: Adobe Illustrator 30.1.0, SVG Export Plug-In . SVG Version: 2.1.1 Build 136)  -->
  <defs>
    <style>
      .st0 {
        fill: #fff;
      }
    </style>
  </defs>
  <path class="st0" d="M16,3h0c-7.18,0-13,5.82-13,13s5.82,13,13,13,13-5.82,13-13c0-7.18-5.82-12.99-13-13ZM27,16c0,1.01-.14,2.02-.42,3h-4.81c.31-1.99.31-4.01,0-6h4.81c.28.98.42,1.99.42,3ZM12.75,21h6.5c-.64,2.1-1.75,4.02-3.25,5.62-1.5-1.6-2.61-3.53-3.25-5.62ZM12.26,19c-.34-1.99-.34-4.01,0-6h7.48c.34,1.99.34,4.01,0,6h-7.48ZM5,16c0-1.01.14-2.02.42-3h4.81c-.31,1.99-.31,4.01,0,6h-4.81c-.28-.98-.42-1.99-.42-3ZM19.25,11h-6.5c.64-2.1,1.75-4.02,3.25-5.62,1.5,1.6,2.61,3.53,3.25,5.62ZM25.79,11h-4.45c-.56-2.06-1.51-3.99-2.79-5.7,3.13.75,5.78,2.83,7.24,5.7h0ZM13.45,5.3c-1.28,1.71-2.23,3.64-2.79,5.7h-4.46c1.47-2.87,4.11-4.95,7.24-5.7ZM6.2,21h4.46c.56,2.06,1.51,3.99,2.79,5.7-3.13-.75-5.78-2.83-7.24-5.7ZM18.55,26.7c1.28-1.71,2.23-3.64,2.79-5.7h4.46c-1.47,2.87-4.11,4.95-7.25,5.7Z"/>
</svg>